<svg width="325" height="250" viewBox="0 0 325 250" fill="none" xmlns="http://www.w3.org/2000/svg">
<rect width="325" height="250" rx="86" fill="#FF9800"/>
<rect width="115.47" height="85.7811" transform="matrix(0.989703 -0.143136 0.186118 0.982527 112.753 147.718)" fill="#FFB74D" stroke="#212121"/>
<rect width="136.986" height="100.386" transform="matrix(0.997531 -0.0702306 0.0918253 0.995775 88.9531 117.27)" fill="#FFB74D" stroke="#212121"/>
<rect x="79" y="76.6755" width="149" height="124" transform="rotate(-0.259761 79 76.6755)" fill="#FFB74D" stroke="#212121"/>
<g filter="url(#filter0_d_1420_4040)">
<rect x="86.3867" y="17" width="178.793" height="148.795" transform="rotate(11.2172 86.3867 17)" fill="#CE93D8"/>
<rect x="86.3867" y="17" width="178.793" height="148.795" transform="rotate(11.2172 86.3867 17)" stroke="#212121"/>
</g>
<g filter="url(#filter1_d_1420_4040)">
<mask id="path-6-inside-1_1420_4040" fill="white">
<path fill-rule="evenodd" clip-rule="evenodd" d="M32.45 86.704C30.3308 86.1108 29.3067 83.9716 30.1626 81.9259L44.1113 48.5899C44.9672 46.5442 47.3791 45.3668 49.4984 45.96C51.6177 46.5532 52.6418 48.6924 51.7858 50.7381L41.0008 76.5133C42.2438 76.7134 43.309 77.4627 43.7881 78.6249C44.1821 79.5805 44.1055 80.6346 43.6629 81.567L70.0852 88.9629C72.2044 89.5561 73.2285 91.6954 72.3726 93.741C71.5166 95.7867 69.1047 96.9641 66.9855 96.3709L32.45 86.704ZM48.0227 76.9027C47.3419 74.9443 48.5587 72.6778 50.7405 71.8404C54.4429 70.4193 58.6109 68.8977 63.1527 67.3619C65.3633 66.6144 67.6262 67.6252 68.2071 69.6197C68.7879 71.6141 67.4668 73.8369 65.2563 74.5844C60.8468 76.0755 56.7998 77.553 53.206 78.9324C51.0241 79.7698 48.7035 78.8611 48.0227 76.9027ZM75.7358 63.3955C73.5004 64.0484 72.0743 66.2212 72.5506 68.2486C73.0269 70.276 75.2251 71.3903 77.4606 70.7374C81.4001 69.5869 85.5153 68.4746 89.7613 67.4423C92.0181 66.8936 93.5544 64.7804 93.1927 62.7224C92.831 60.6643 90.7083 59.4407 88.4515 59.9894C84.0553 61.0582 79.8013 62.2082 75.7358 63.3955ZM97.6098 61.7608C97.3773 59.6748 99.032 57.6348 101.306 57.2043C105.552 56.4003 109.885 55.699 114.268 55.1348C116.552 54.8408 118.472 56.3126 118.556 58.4221C118.64 60.5317 116.857 62.4801 114.573 62.7741C110.383 63.3134 106.23 63.9853 102.148 64.7583C99.874 65.1888 97.8423 63.8468 97.6098 61.7608ZM123.011 57.993C122.923 60.1188 124.703 61.7332 126.986 61.5989C129.048 61.4778 131.109 61.3955 133.165 61.3558C135.649 61.3078 138.098 61.3184 140.508 61.3818C142.774 61.4414 144.851 59.7638 145.147 57.6347C145.442 55.5056 143.844 53.7313 141.578 53.6716C139.038 53.6048 136.456 53.5936 133.835 53.6442C131.656 53.6863 129.479 53.7733 127.305 53.9011C125.022 54.0353 123.099 55.8673 123.011 57.993ZM151.917 58.1181C152.421 56.0037 154.637 54.4978 156.866 54.7545C162.108 55.3582 167.108 56.1725 171.832 57.1274C174.009 57.5673 175.209 59.6134 174.513 61.6974C173.816 63.7814 171.487 65.1142 169.31 64.6743C164.798 63.7624 160.031 62.9862 155.04 62.4114C152.811 62.1547 151.413 60.2325 151.917 58.1181ZM196.673 72.5767C198.707 73.3505 201.201 72.3691 202.243 70.3847C203.285 68.4003 202.481 66.1644 200.447 65.3905C196.306 63.8156 191.594 62.2021 186.378 60.6943C184.266 60.0838 181.845 61.2431 180.972 63.2837C180.098 65.3243 181.101 67.4734 183.213 68.0839C188.204 69.5265 192.713 71.0705 196.673 72.5767ZM302.869 139.605C303.198 141.783 301.695 143.861 299.513 144.246L263.958 150.524C261.776 150.91 259.741 149.456 259.413 147.278C259.084 145.1 260.587 143.022 262.769 142.637L289.738 137.875C289.432 136.786 289.592 135.563 290.28 134.53C291.079 133.332 292.393 132.682 293.715 132.69L289.615 105.507C289.286 103.329 290.788 101.251 292.97 100.866C295.152 100.48 297.187 101.934 297.516 104.112L302.869 139.605ZM284.711 126.371C286.584 127.492 287.156 129.947 285.99 131.854C284.823 133.76 282.359 134.397 280.486 133.276C277.189 131.302 273.463 129.147 269.38 126.903C267.467 125.851 266.806 123.421 267.905 121.475C269.004 119.53 271.445 118.805 273.359 119.857C277.532 122.15 281.34 124.354 284.711 126.371ZM261.749 113.756C263.702 114.735 264.453 117.137 263.426 119.12C262.399 121.103 259.983 121.918 258.03 120.939C254.348 119.093 250.484 117.244 246.475 115.437C244.483 114.539 243.635 112.172 244.583 110.151C245.53 108.129 247.913 107.219 249.906 108.117C254.02 109.972 257.98 111.867 261.749 113.756ZM237.8 102.986C239.833 103.792 240.787 106.115 239.931 108.175C239.074 110.234 236.732 111.251 234.698 110.445C230.783 108.893 226.777 107.416 222.709 106.048C220.633 105.35 219.559 103.083 220.308 100.984C221.057 98.8852 223.347 97.7493 225.423 98.447C229.633 99.8623 233.768 101.388 237.8 102.986ZM212.754 94.611C214.871 95.1787 216.084 97.3719 215.464 99.5097C214.843 101.647 212.623 102.92 210.506 102.353C208.454 101.802 206.395 101.288 204.331 100.812C201.965 100.267 199.623 99.8038 197.31 99.4147C195.144 99.0503 193.727 96.9864 194.146 94.8048C194.566 92.6231 196.661 91.15 198.828 91.5144C201.293 91.929 203.788 92.423 206.309 93.0036C208.467 93.5006 210.616 94.0379 212.754 94.611ZM140.297 103.15C138.167 103.781 135.973 102.575 135.398 100.455C134.822 98.3352 136.082 96.1049 138.213 95.4734C142.643 94.1599 147.659 92.9125 153.164 91.9179C155.345 91.5239 157.386 92.9689 157.723 95.1454C158.06 97.3219 156.566 99.4056 154.385 99.7996C149.197 100.737 144.47 101.913 140.297 103.15ZM183.671 89.8822C185.871 89.9885 187.523 91.8656 187.361 94.0749C187.198 96.2842 185.283 97.989 183.082 97.8827C178.089 97.6415 173.282 97.716 168.702 98.0246C166.497 98.1731 164.636 96.5045 164.544 94.2977C164.453 92.0908 166.165 90.1814 168.37 90.0329C173.238 89.7049 178.354 89.6254 183.671 89.8822Z"/>
</mask>
<path fill-rule="evenodd" clip-rule="evenodd" d="M32.45 86.704C30.3308 86.1108 29.3067 83.9716 30.1626 81.9259L44.1113 48.5899C44.9672 46.5442 47.3791 45.3668 49.4984 45.96C51.6177 46.5532 52.6418 48.6924 51.7858 50.7381L41.0008 76.5133C42.2438 76.7134 43.309 77.4627 43.7881 78.6249C44.1821 79.5805 44.1055 80.6346 43.6629 81.567L70.0852 88.9629C72.2044 89.5561 73.2285 91.6954 72.3726 93.741C71.5166 95.7867 69.1047 96.9641 66.9855 96.3709L32.45 86.704ZM48.0227 76.9027C47.3419 74.9443 48.5587 72.6778 50.7405 71.8404C54.4429 70.4193 58.6109 68.8977 63.1527 67.3619C65.3633 66.6144 67.6262 67.6252 68.2071 69.6197C68.7879 71.6141 67.4668 73.8369 65.2563 74.5844C60.8468 76.0755 56.7998 77.553 53.206 78.9324C51.0241 79.7698 48.7035 78.8611 48.0227 76.9027ZM75.7358 63.3955C73.5004 64.0484 72.0743 66.2212 72.5506 68.2486C73.0269 70.276 75.2251 71.3903 77.4606 70.7374C81.4001 69.5869 85.5153 68.4746 89.7613 67.4423C92.0181 66.8936 93.5544 64.7804 93.1927 62.7224C92.831 60.6643 90.7083 59.4407 88.4515 59.9894C84.0553 61.0582 79.8013 62.2082 75.7358 63.3955ZM97.6098 61.7608C97.3773 59.6748 99.032 57.6348 101.306 57.2043C105.552 56.4003 109.885 55.699 114.268 55.1348C116.552 54.8408 118.472 56.3126 118.556 58.4221C118.64 60.5317 116.857 62.4801 114.573 62.7741C110.383 63.3134 106.23 63.9853 102.148 64.7583C99.874 65.1888 97.8423 63.8468 97.6098 61.7608ZM123.011 57.993C122.923 60.1188 124.703 61.7332 126.986 61.5989C129.048 61.4778 131.109 61.3955 133.165 61.3558C135.649 61.3078 138.098 61.3184 140.508 61.3818C142.774 61.4414 144.851 59.7638 145.147 57.6347C145.442 55.5056 143.844 53.7313 141.578 53.6716C139.038 53.6048 136.456 53.5936 133.835 53.6442C131.656 53.6863 129.479 53.7733 127.305 53.9011C125.022 54.0353 123.099 55.8673 123.011 57.993ZM151.917 58.1181C152.421 56.0037 154.637 54.4978 156.866 54.7545C162.108 55.3582 167.108 56.1725 171.832 57.1274C174.009 57.5673 175.209 59.6134 174.513 61.6974C173.816 63.7814 171.487 65.1142 169.31 64.6743C164.798 63.7624 160.031 62.9862 155.04 62.4114C152.811 62.1547 151.413 60.2325 151.917 58.1181ZM196.673 72.5767C198.707 73.3505 201.201 72.3691 202.243 70.3847C203.285 68.4003 202.481 66.1644 200.447 65.3905C196.306 63.8156 191.594 62.2021 186.378 60.6943C184.266 60.0838 181.845 61.2431 180.972 63.2837C180.098 65.3243 181.101 67.4734 183.213 68.0839C188.204 69.5265 192.713 71.0705 196.673 72.5767ZM302.869 139.605C303.198 141.783 301.695 143.861 299.513 144.246L263.958 150.524C261.776 150.91 259.741 149.456 259.413 147.278C259.084 145.1 260.587 143.022 262.769 142.637L289.738 137.875C289.432 136.786 289.592 135.563 290.28 134.53C291.079 133.332 292.393 132.682 293.715 132.69L289.615 105.507C289.286 103.329 290.788 101.251 292.97 100.866C295.152 100.48 297.187 101.934 297.516 104.112L302.869 139.605ZM284.711 126.371C286.584 127.492 287.156 129.947 285.99 131.854C284.823 133.76 282.359 134.397 280.486 133.276C277.189 131.302 273.463 129.147 269.38 126.903C267.467 125.851 266.806 123.421 267.905 121.475C269.004 119.53 271.445 118.805 273.359 119.857C277.532 122.15 281.34 124.354 284.711 126.371ZM261.749 113.756C263.702 114.735 264.453 117.137 263.426 119.12C262.399 121.103 259.983 121.918 258.03 120.939C254.348 119.093 250.484 117.244 246.475 115.437C244.483 114.539 243.635 112.172 244.583 110.151C245.53 108.129 247.913 107.219 249.906 108.117C254.02 109.972 257.98 111.867 261.749 113.756ZM237.8 102.986C239.833 103.792 240.787 106.115 239.931 108.175C239.074 110.234 236.732 111.251 234.698 110.445C230.783 108.893 226.777 107.416 222.709 106.048C220.633 105.35 219.559 103.083 220.308 100.984C221.057 98.8852 223.347 97.7493 225.423 98.447C229.633 99.8623 233.768 101.388 237.8 102.986ZM212.754 94.611C214.871 95.1787 216.084 97.3719 215.464 99.5097C214.843 101.647 212.623 102.92 210.506 102.353C208.454 101.802 206.395 101.288 204.331 100.812C201.965 100.267 199.623 99.8038 197.31 99.4147C195.144 99.0503 193.727 96.9864 194.146 94.8048C194.566 92.6231 196.661 91.15 198.828 91.5144C201.293 91.929 203.788 92.423 206.309 93.0036C208.467 93.5006 210.616 94.0379 212.754 94.611ZM140.297 103.15C138.167 103.781 135.973 102.575 135.398 100.455C134.822 98.3352 136.082 96.1049 138.213 95.4734C142.643 94.1599 147.659 92.9125 153.164 91.9179C155.345 91.5239 157.386 92.9689 157.723 95.1454C158.06 97.3219 156.566 99.4056 154.385 99.7996C149.197 100.737 144.47 101.913 140.297 103.15ZM183.671 89.8822C185.871 89.9885 187.523 91.8656 187.361 94.0749C187.198 96.2842 185.283 97.989 183.082 97.8827C178.089 97.6415 173.282 97.716 168.702 98.0246C166.497 98.1731 164.636 96.5045 164.544 94.2977C164.453 92.0908 166.165 90.1814 168.37 90.0329C173.238 89.7049 178.354 89.6254 183.671 89.8822Z" fill="#F9D6FF"/>
<path d="M30.1626 81.9259L31.0851 82.3119L31.0851 82.3119L30.1626 81.9259ZM32.45 86.704L32.1805 87.667L32.1805 87.667L32.45 86.704ZM44.1113 48.5899L43.1888 48.2039L43.1888 48.2039L44.1113 48.5899ZM51.7858 50.7381L50.8633 50.3521L50.8633 50.3521L51.7858 50.7381ZM41.0008 76.5133L40.0783 76.1273C39.96 76.41 39.9779 76.7313 40.1268 76.9992C40.2757 77.267 40.5392 77.4518 40.8418 77.5005L41.0008 76.5133ZM43.7881 78.6249L44.7126 78.2437L44.7126 78.2437L43.7881 78.6249ZM43.6629 81.567L42.7595 81.1381C42.6331 81.4045 42.6306 81.7131 42.7528 81.9814C42.875 82.2498 43.1094 82.4505 43.3933 82.53L43.6629 81.567ZM70.0852 88.9629L70.3547 87.9999L70.3547 87.9999L70.0852 88.9629ZM72.3726 93.741L71.4501 93.355L71.4501 93.355L72.3726 93.741ZM66.9855 96.3709L67.255 95.4079L67.255 95.4079L66.9855 96.3709ZM50.7405 71.8404L50.3822 70.9068L50.3822 70.9068L50.7405 71.8404ZM48.0227 76.9027L47.0781 77.231L47.0781 77.231L48.0227 76.9027ZM63.1527 67.3619L62.8324 66.4145L62.8324 66.4145L63.1527 67.3619ZM68.2071 69.6197L67.247 69.8993L67.247 69.8993L68.2071 69.6197ZM65.2563 74.5844L65.5766 75.5318L65.5766 75.5317L65.2563 74.5844ZM53.206 78.9324L52.8477 77.9988L52.8477 77.9988L53.206 78.9324ZM72.5506 68.2486L71.5771 68.4773L71.5771 68.4773L72.5506 68.2486ZM75.7358 63.3955L76.0162 64.3554L76.0162 64.3554L75.7358 63.3955ZM77.4606 70.7374L77.7409 71.6973L77.7409 71.6973L77.4606 70.7374ZM89.7613 67.4423L89.9976 68.414L89.9976 68.414L89.7613 67.4423ZM88.4515 59.9894L88.2152 59.0177L88.2152 59.0177L88.4515 59.9894ZM101.306 57.2043L101.12 56.2217L101.12 56.2217L101.306 57.2043ZM97.6098 61.7608L96.6159 61.8716L96.6159 61.8716L97.6098 61.7608ZM114.268 55.1348L114.14 54.143L114.14 54.143L114.268 55.1348ZM118.556 58.4221L119.555 58.3822L119.555 58.3822L118.556 58.4221ZM114.573 62.7741L114.7 63.7659L114.7 63.7659L114.573 62.7741ZM102.148 64.7583L102.334 65.7408L102.334 65.7408L102.148 64.7583ZM126.986 61.5989L126.928 60.6006L126.928 60.6006L126.986 61.5989ZM123.011 57.993L124.01 58.0345L124.01 58.0345L123.011 57.993ZM133.165 61.3558L133.185 62.3556L133.185 62.3556L133.165 61.3558ZM140.508 61.3818L140.482 62.3815L140.482 62.3815L140.508 61.3818ZM145.147 57.6347L144.156 57.4972L144.156 57.4972L145.147 57.6347ZM141.578 53.6716L141.551 54.6713L141.551 54.6713L141.578 53.6716ZM133.835 53.6442L133.815 52.6444L133.815 52.6444L133.835 53.6442ZM127.305 53.9011L127.364 54.8993L127.364 54.8993L127.305 53.9011ZM156.866 54.7545L156.981 53.7611L156.866 54.7545ZM151.917 58.1181L152.89 58.3501L152.89 58.3501L151.917 58.1181ZM171.832 57.1274L171.634 58.1076L171.634 58.1076L171.832 57.1274ZM169.31 64.6743L169.112 65.6544L169.112 65.6544L169.31 64.6743ZM155.04 62.4114L155.155 61.418L155.155 61.418L155.04 62.4114ZM202.243 70.3847L201.358 69.9198L201.358 69.9198L202.243 70.3847ZM196.673 72.5767L197.028 71.642L197.028 71.642L196.673 72.5767ZM200.447 65.3905L200.091 66.3252L200.091 66.3252L200.447 65.3905ZM186.378 60.6943L186.1 61.655L186.1 61.655L186.378 60.6943ZM180.972 63.2837L181.891 63.6774L181.891 63.6773L180.972 63.2837ZM183.213 68.0839L183.491 67.1232L183.491 67.1232L183.213 68.0839ZM299.513 144.246L299.687 145.231L299.687 145.231L299.513 144.246ZM302.869 139.605L301.88 139.754L301.88 139.754L302.869 139.605ZM263.958 150.524L264.132 151.509L264.132 151.509L263.958 150.524ZM259.413 147.278L258.424 147.428L258.424 147.428L259.413 147.278ZM262.769 142.637L262.595 141.652L262.595 141.652L262.769 142.637ZM289.738 137.875L289.912 138.86C290.19 138.811 290.434 138.646 290.584 138.407C290.735 138.168 290.777 137.876 290.7 137.604L289.738 137.875ZM290.28 134.53L291.112 135.085L291.112 135.085L290.28 134.53ZM293.715 132.69L293.709 133.69C294.001 133.692 294.279 133.566 294.471 133.345C294.662 133.124 294.747 132.83 294.703 132.541L293.715 132.69ZM289.615 105.507L290.603 105.358L290.603 105.358L289.615 105.507ZM292.97 100.866L293.144 101.85L293.144 101.85L292.97 100.866ZM297.516 104.112L298.504 103.963L298.504 103.963L297.516 104.112ZM285.99 131.854L286.843 132.376L286.843 132.376L285.99 131.854ZM284.711 126.371L284.197 127.229L284.197 127.229L284.711 126.371ZM280.486 133.276L279.973 134.134L279.973 134.134L280.486 133.276ZM269.38 126.903L269.862 126.027L269.862 126.027L269.38 126.903ZM267.905 121.475L268.776 121.967L268.776 121.967L267.905 121.475ZM273.359 119.857L272.877 120.733L272.877 120.733L273.359 119.857ZM263.426 119.12L264.314 119.58L264.314 119.58L263.426 119.12ZM261.749 113.756L261.301 114.65L261.301 114.65L261.749 113.756ZM258.03 120.939L257.582 121.833L257.582 121.833L258.03 120.939ZM246.475 115.437L246.886 114.525L246.886 114.525L246.475 115.437ZM244.583 110.151L245.488 110.575L245.488 110.575L244.583 110.151ZM249.906 108.117L250.317 107.205L250.317 107.205L249.906 108.117ZM239.931 108.175L240.854 108.559L240.854 108.559L239.931 108.175ZM237.8 102.986L238.168 102.056L238.168 102.056L237.8 102.986ZM234.698 110.445L235.067 109.515L235.067 109.515L234.698 110.445ZM222.709 106.048L222.39 106.996L222.39 106.996L222.709 106.048ZM220.308 100.984L221.25 101.32L221.25 101.32L220.308 100.984ZM225.423 98.447L225.741 97.4991L225.741 97.4991L225.423 98.447ZM215.464 99.5097L214.503 99.2308L214.503 99.2308L215.464 99.5097ZM212.754 94.611L213.013 93.6451L213.013 93.6451L212.754 94.611ZM210.506 102.353L210.765 101.387L210.765 101.387L210.506 102.353ZM204.331 100.812L204.556 99.838L204.556 99.838L204.331 100.812ZM197.31 99.4147L197.144 100.401L197.144 100.401L197.31 99.4147ZM194.146 94.8048L195.128 94.9934L195.128 94.9934L194.146 94.8048ZM198.828 91.5144L198.994 90.5282L198.994 90.5282L198.828 91.5144ZM206.309 93.0036L206.084 93.9781L206.084 93.9781L206.309 93.0036ZM135.398 100.455L136.363 100.193L136.363 100.193L135.398 100.455ZM140.297 103.15L140.012 102.191L140.012 102.191L140.297 103.15ZM138.213 95.4734L138.497 96.4322L138.497 96.4322L138.213 95.4734ZM153.164 91.9179L152.986 90.9338L152.986 90.9338L153.164 91.9179ZM154.385 99.7996L154.207 98.8155L154.207 98.8155L154.385 99.7996ZM187.361 94.0749L186.363 94.0015L186.363 94.0016L187.361 94.0749ZM183.671 89.8822L183.719 88.8833L183.719 88.8833L183.671 89.8822ZM183.082 97.8827L183.034 98.8816L183.034 98.8816L183.082 97.8827ZM168.702 98.0246L168.769 99.0223L168.769 99.0223L168.702 98.0246ZM164.544 94.2977L163.545 94.3392L163.545 94.3392L164.544 94.2977ZM168.37 90.0329L168.303 89.0351L168.303 89.0351L168.37 90.0329ZM29.2401 81.5399C28.1555 84.1321 29.474 86.9094 32.1805 87.667L32.7196 85.741C31.1875 85.3122 30.4578 83.8111 31.0851 82.3119L29.2401 81.5399ZM43.1888 48.2039L29.2401 81.5399L31.0851 82.3119L45.0338 48.9759L43.1888 48.2039ZM49.7679 44.997C47.1569 44.2662 44.2372 45.6982 43.1888 48.2039L45.0338 48.9759C45.6972 47.3903 47.6013 46.4674 49.2288 46.923L49.7679 44.997ZM52.7083 51.1241C53.7929 48.5319 52.4744 45.7546 49.7679 44.997L49.2288 46.923C50.7609 47.3518 51.4906 48.853 50.8633 50.3521L52.7083 51.1241ZM41.9233 76.8993L52.7083 51.1241L50.8633 50.3521L40.0783 76.1273L41.9233 76.8993ZM44.7126 78.2437C44.0835 76.7177 42.6981 75.7737 41.1598 75.526L40.8418 77.5005C41.7896 77.6532 42.5345 78.2077 42.8636 79.0061L44.7126 78.2437ZM44.5663 81.9958C45.1142 80.8416 45.2274 79.4922 44.7126 78.2437L42.8636 79.0061C43.1369 79.6688 43.0967 80.4277 42.7595 81.1381L44.5663 81.9958ZM70.3547 87.9999L43.9324 80.604L43.3933 82.53L69.8156 89.9259L70.3547 87.9999ZM73.2951 94.127C74.3797 91.5349 73.0612 88.7575 70.3547 87.9999L69.8156 89.9259C71.3477 90.3548 72.0774 91.8559 71.4501 93.355L73.2951 94.127ZM66.7159 97.3339C69.3269 98.0648 72.2466 96.6328 73.2951 94.127L71.4501 93.355C70.7866 94.9406 68.8825 95.8635 67.255 95.4079L66.7159 97.3339ZM32.1805 87.667L66.7159 97.3339L67.255 95.4079L32.7196 85.741L32.1805 87.667ZM50.3822 70.9068C47.7995 71.8981 46.1859 74.6644 47.0781 77.231L48.9672 76.5743C48.4979 75.2242 49.3179 73.4575 51.0989 72.774L50.3822 70.9068ZM62.8324 66.4145C58.2767 67.9551 54.0959 69.4814 50.3822 70.9068L51.0989 72.774C54.7899 71.3573 58.9452 69.8403 63.4731 68.3092L62.8324 66.4145ZM69.1672 69.3401C68.3955 66.6906 65.4683 65.5232 62.8324 66.4145L63.4731 68.3092C65.2582 67.7055 66.8568 68.5599 67.247 69.8993L69.1672 69.3401ZM65.5766 75.5317C68.1946 74.6465 69.9257 71.9445 69.1672 69.3401L67.247 69.8993C67.6502 71.2838 66.7391 73.0274 64.936 73.6371L65.5766 75.5317ZM53.5643 79.866C57.1468 78.4909 61.1811 77.0181 65.5766 75.5318L64.936 73.6371C60.5125 75.1329 56.4529 76.615 52.8477 77.9988L53.5643 79.866ZM47.0781 77.231C47.982 79.8311 50.9687 80.8622 53.5643 79.866L52.8477 77.9988C51.0796 78.6774 49.425 77.8911 48.9672 76.5743L47.0781 77.231ZM73.5241 68.0199C73.1909 66.6018 74.1952 64.8873 76.0162 64.3554L75.4555 62.4356C72.8056 63.2095 70.9577 65.8406 71.5771 68.4773L73.5241 68.0199ZM77.1802 69.7775C75.3827 70.3025 73.8439 69.3815 73.5241 68.0199L71.5771 68.4773C72.2098 71.1706 75.0676 72.4781 77.7409 71.6973L77.1802 69.7775ZM89.5251 66.4706C85.263 67.5068 81.1331 68.6231 77.1802 69.7775L77.7409 71.6973C81.6671 70.5507 85.7676 69.4424 89.9976 68.414L89.5251 66.4706ZM92.2078 62.8955C92.463 64.3476 91.3596 66.0246 89.5251 66.4706L89.9976 68.414C92.6766 67.7626 94.6458 65.2133 94.1776 62.5493L92.2078 62.8955ZM88.6877 60.9611C90.4925 60.5223 91.9645 61.5115 92.2078 62.8955L94.1776 62.5493C93.6974 59.8172 90.924 58.3591 88.2152 59.0177L88.6877 60.9611ZM76.0162 64.3554C80.0684 63.1719 84.3075 62.026 88.6877 60.9611L88.2152 59.0177C83.803 60.0904 79.5343 61.2444 75.4555 62.4356L76.0162 64.3554ZM101.12 56.2217C98.4149 56.7339 96.3166 59.1864 96.6159 61.8716L98.6036 61.65C98.4379 60.1632 99.6491 58.5357 101.492 58.1868L101.12 56.2217ZM114.14 54.143C109.736 54.7099 105.383 55.4144 101.12 56.2217L101.492 58.1868C105.72 57.3862 110.033 56.6881 114.395 56.1266L114.14 54.143ZM119.555 58.3822C119.444 55.5947 116.912 53.7862 114.14 54.143L114.395 56.1266C116.192 55.8953 117.499 57.0304 117.557 58.462L119.555 58.3822ZM114.7 63.7659C117.426 63.4151 119.663 61.0797 119.555 58.3822L117.557 58.462C117.617 59.9836 116.288 61.5451 114.445 61.7823L114.7 63.7659ZM102.334 65.7408C106.399 64.9712 110.532 64.3025 114.7 63.7659L114.445 61.7823C110.235 62.3243 106.062 62.9994 101.962 63.7757L102.334 65.7408ZM96.6159 61.8716C96.9241 64.6362 99.5918 66.26 102.334 65.7408L101.962 63.7757C100.156 64.1176 98.7605 63.0573 98.6036 61.65L96.6159 61.8716ZM126.928 60.6006C125.154 60.7049 123.949 59.4907 124.01 58.0345L122.011 57.9516C121.896 60.7468 124.251 62.7614 127.045 62.5972L126.928 60.6006ZM133.146 60.356C131.076 60.396 129.002 60.4787 126.928 60.6006L127.045 62.5972C129.094 62.4768 131.142 62.3951 133.185 62.3556L133.146 60.356ZM140.534 60.3822C138.109 60.3184 135.646 60.3077 133.146 60.356L133.185 62.3556C135.653 62.3079 138.086 62.3185 140.482 62.3815L140.534 60.3822ZM144.156 57.4972C143.936 59.0803 142.335 60.4295 140.534 60.3822L140.482 62.3815C143.214 62.4533 145.766 60.4472 146.137 57.7721L144.156 57.4972ZM141.551 54.6713C143.282 54.7168 144.361 56.0171 144.156 57.4972L146.137 57.7721C146.522 54.994 144.406 52.7457 141.604 52.672L141.551 54.6713ZM133.854 54.6441C136.46 54.5937 139.027 54.6049 141.551 54.6713L141.604 52.672C139.05 52.6048 136.452 52.5935 133.815 52.6444L133.854 54.6441ZM127.364 54.8993C129.525 54.7723 131.69 54.6859 133.854 54.6441L133.815 52.6444C131.623 52.6868 129.433 52.7743 127.247 52.9028L127.364 54.8993ZM124.01 58.0345C124.074 56.4798 125.533 55.007 127.364 54.8993L127.247 52.9028C124.51 53.0636 122.123 55.2549 122.011 57.9516L124.01 58.0345ZM156.981 53.7611C154.274 53.4493 151.572 55.255 150.944 57.8861L152.89 58.3501C153.271 56.7523 155 55.5462 156.752 55.7479L156.981 53.7611ZM172.031 56.1472C167.28 55.1871 162.252 54.3681 156.981 53.7611L156.752 55.7479C161.963 56.3482 166.936 57.1579 171.634 58.1076L172.031 56.1472ZM175.461 62.0144C176.352 59.3489 174.785 56.7038 172.031 56.1472L171.634 58.1076C173.234 58.4309 174.067 59.8779 173.564 61.3804L175.461 62.0144ZM169.112 65.6544C171.776 66.1927 174.602 64.5851 175.461 62.0144L173.564 61.3804C173.031 62.9777 171.199 64.0357 169.508 63.6941L169.112 65.6544ZM154.926 63.4049C159.887 63.9762 164.626 64.7478 169.112 65.6544L169.508 63.6941C164.97 62.777 160.175 61.9962 155.155 61.418L154.926 63.4049ZM150.944 57.8861C150.292 60.6185 152.137 63.0837 154.926 63.4049L155.155 61.418C153.485 61.2257 152.533 59.8465 152.89 58.3501L150.944 57.8861ZM201.358 69.9198C200.54 71.477 198.568 72.2278 197.028 71.642L196.317 73.5113C198.846 74.4733 201.862 73.2613 203.128 70.8497L201.358 69.9198ZM200.091 66.3252C201.534 66.874 202.137 68.4367 201.358 69.9198L203.128 70.8497C204.434 68.364 203.428 65.4547 200.802 64.4559L200.091 66.3252ZM186.1 61.655C191.288 63.1545 195.974 64.7592 200.091 66.3252L200.802 64.4559C196.638 62.872 191.9 61.2496 186.656 59.7337L186.1 61.655ZM181.891 63.6773C182.569 62.0938 184.48 61.1868 186.1 61.655L186.656 59.7337C184.051 58.9809 181.122 60.3925 180.052 62.89L181.891 63.6773ZM183.491 67.1232C181.967 66.6827 181.249 65.1756 181.891 63.6774L180.052 62.89C178.946 65.4729 180.236 68.2641 182.936 69.0445L183.491 67.1232ZM197.028 71.642C193.045 70.1269 188.51 68.5741 183.491 67.1232L182.936 69.0445C187.898 70.479 192.381 72.014 196.317 73.5113L197.028 71.642ZM299.687 145.231C302.398 144.752 304.268 142.175 303.858 139.456L301.88 139.754C302.127 141.39 300.992 142.969 299.34 143.261L299.687 145.231ZM264.132 151.509L299.687 145.231L299.34 143.261L263.784 149.54L264.132 151.509ZM258.424 147.428C258.837 150.167 261.402 151.991 264.132 151.509L263.784 149.54C262.15 149.828 260.646 148.746 260.402 147.129L258.424 147.428ZM262.595 141.652C259.884 142.131 258.014 144.708 258.424 147.428L260.402 147.129C260.155 145.493 261.29 143.914 262.943 143.622L262.595 141.652ZM289.564 136.89L262.595 141.652L262.943 143.622L289.912 138.86L289.564 136.89ZM289.448 133.975C288.594 135.257 288.392 136.782 288.775 138.146L290.7 137.604C290.472 136.791 290.589 135.87 291.112 135.085L289.448 133.975ZM293.721 131.69C292.071 131.68 290.438 132.491 289.448 133.976L291.112 135.085C291.719 134.174 292.715 133.684 293.709 133.69L293.721 131.69ZM288.626 105.656L292.726 132.839L294.703 132.541L290.603 105.358L288.626 105.656ZM292.796 99.8809C290.085 100.36 288.215 102.936 288.626 105.656L290.603 105.358C290.357 103.721 291.491 102.142 293.144 101.85L292.796 99.8809ZM298.504 103.963C298.091 101.223 295.526 99.3989 292.796 99.8809L293.144 101.85C294.778 101.562 296.283 102.644 296.527 104.261L298.504 103.963ZM303.858 139.456L298.504 103.963L296.527 104.261L301.88 139.754L303.858 139.456ZM286.843 132.376C288.287 130.014 287.594 126.932 285.225 125.513L284.197 127.229C285.574 128.053 286.025 129.88 285.137 131.332L286.843 132.376ZM279.973 134.134C282.335 135.548 285.401 134.731 286.843 132.376L285.137 131.332C284.244 132.79 282.383 133.246 281 132.418L279.973 134.134ZM268.899 127.779C272.969 130.017 276.685 132.166 279.973 134.134L281 132.418C277.693 130.439 273.956 128.277 269.862 126.027L268.899 127.779ZM267.034 120.984C265.673 123.395 266.478 126.449 268.899 127.779L269.862 126.027C268.456 125.254 267.94 123.448 268.776 121.967L267.034 120.984ZM273.841 118.981C271.428 117.655 268.392 118.58 267.034 120.984L268.776 121.967C269.616 120.48 271.463 119.956 272.877 120.733L273.841 118.981ZM285.225 125.513C281.844 123.49 278.025 121.281 273.841 118.981L272.877 120.733C277.038 123.02 280.836 125.217 284.197 127.229L285.225 125.513ZM264.314 119.58C265.587 117.12 264.667 114.1 262.197 112.862L261.301 114.65C262.736 115.37 263.318 117.153 262.538 118.66L264.314 119.58ZM257.582 121.833C260.043 123.066 263.045 122.031 264.314 119.58L262.538 118.66C261.753 120.176 259.924 120.769 258.478 120.045L257.582 121.833ZM246.064 116.348C250.06 118.149 253.911 119.993 257.582 121.833L258.478 120.045C254.785 118.194 250.909 116.338 246.886 114.525L246.064 116.348ZM243.677 109.726C242.502 112.234 243.544 115.213 246.064 116.348L246.886 114.525C245.421 113.864 244.769 112.109 245.488 110.575L243.677 109.726ZM250.317 107.205C247.809 106.075 244.848 107.228 243.677 109.726L245.488 110.575C246.212 109.031 248.018 108.363 249.495 109.029L250.317 107.205ZM262.197 112.862C258.417 110.967 254.444 109.066 250.317 107.205L249.495 109.029C253.596 110.877 257.543 112.767 261.301 114.65L262.197 112.862ZM240.854 108.559C241.918 106 240.738 103.075 238.168 102.056L237.431 103.915C238.927 104.508 239.657 106.229 239.007 107.791L240.854 108.559ZM234.33 111.375C236.887 112.388 239.795 111.106 240.854 108.559L239.007 107.791C238.354 109.363 236.576 110.113 235.067 109.515L234.33 111.375ZM222.39 106.996C226.44 108.357 230.43 109.829 234.33 111.375L235.067 109.515C231.137 107.958 227.114 106.474 223.027 105.1L222.39 106.996ZM219.366 100.648C218.435 103.257 219.768 106.114 222.39 106.996L223.027 105.1C221.499 104.586 220.683 102.909 221.25 101.32L219.366 100.648ZM225.741 97.4991C223.134 96.6225 220.293 98.0511 219.366 100.648L221.25 101.32C221.821 99.7193 223.561 98.876 225.104 99.3948L225.741 97.4991ZM238.168 102.056C234.121 100.452 229.969 98.9205 225.741 97.4991L225.104 99.3948C229.296 100.804 233.414 102.323 237.431 103.915L238.168 102.056ZM216.424 99.7885C217.197 97.1271 215.686 94.3618 213.013 93.6451L212.495 95.5769C214.057 95.9956 214.972 97.6168 214.503 99.2308L216.424 99.7885ZM210.247 103.318C212.903 104.031 215.655 102.435 216.424 99.7885L214.503 99.2308C214.03 100.859 212.343 101.81 210.765 101.387L210.247 103.318ZM204.107 101.787C206.158 102.259 208.206 102.771 210.247 103.318L210.765 101.387C208.702 100.834 206.631 100.316 204.556 99.838L204.107 101.787ZM197.144 100.401C199.438 100.787 201.76 101.247 204.107 101.787L204.556 99.838C202.169 99.2884 199.808 98.8209 197.476 98.4286L197.144 100.401ZM193.164 94.6161C192.641 97.3382 194.413 99.9415 197.144 100.401L197.476 98.4286C195.874 98.1591 194.813 96.6346 195.128 94.9934L193.164 94.6161ZM198.994 90.5282C196.282 90.072 193.684 91.911 193.164 94.6161L195.128 94.9934C195.447 93.3352 197.041 92.2279 198.662 92.5005L198.994 90.5282ZM206.533 92.0291C203.992 91.444 201.478 90.9461 198.994 90.5282L198.662 92.5005C201.108 92.9119 203.583 93.4021 206.084 93.9781L206.533 92.0291ZM213.013 93.6451C210.864 93.0691 208.703 92.5289 206.533 92.0291L206.084 93.9781C208.23 94.4723 210.368 95.0068 212.495 95.5769L213.013 93.6451ZM134.433 100.717C135.158 103.389 137.923 104.896 140.581 104.109L140.012 102.191C138.41 102.666 136.788 101.76 136.363 100.193L134.433 100.717ZM137.928 94.5147C135.287 95.2976 133.712 98.063 134.433 100.717L136.363 100.193C135.932 98.6075 136.878 96.9122 138.497 96.4322L137.928 94.5147ZM152.986 90.9338C147.442 91.9355 142.391 93.1918 137.928 94.5147L138.497 96.4322C142.896 95.128 147.876 93.8895 153.342 92.902L152.986 90.9338ZM158.711 94.9923C158.287 92.2545 155.714 90.441 152.986 90.9338L153.342 92.902C154.975 92.6069 156.484 93.6834 156.735 95.2985L158.711 94.9923ZM154.563 100.784C157.272 100.294 159.132 97.7104 158.711 94.9923L156.735 95.2985C156.988 96.9334 155.86 98.5171 154.207 98.8155L154.563 100.784ZM140.581 104.109C144.723 102.881 149.414 101.714 154.563 100.784L154.207 98.8155C148.98 99.76 144.217 100.945 140.012 102.191L140.581 104.109ZM188.358 94.1482C188.561 91.3838 186.486 89.017 183.719 88.8833L183.622 90.881C185.256 90.9599 186.485 92.3475 186.363 94.0015L188.358 94.1482ZM183.034 98.8816C185.781 99.0143 188.156 96.8935 188.358 94.1482L186.363 94.0016C186.24 95.6748 184.784 96.9638 183.131 96.8839L183.034 98.8816ZM168.769 99.0223C173.313 98.7162 178.082 98.6424 183.034 98.8816L183.131 96.8839C178.097 96.6407 173.251 96.7158 168.635 97.0268L168.769 99.0223ZM163.545 94.3392C163.66 97.1082 166.004 99.2086 168.769 99.0223L168.635 97.0268C166.991 97.1376 165.612 95.9008 165.543 94.2561L163.545 94.3392ZM168.303 89.0351C165.557 89.2201 163.431 91.5902 163.545 94.3392L165.543 94.2561C165.474 92.5914 166.773 91.1427 168.437 91.0306L168.303 89.0351ZM183.719 88.8833C178.361 88.6246 173.207 88.7047 168.303 89.0351L168.437 91.0306C173.27 90.705 178.346 90.6262 183.622 90.881L183.719 88.8833Z" fill="black" mask="url(#path-6-inside-1_1420_4040)"/>
</g>
<g filter="url(#filter2_d_1420_4040)">
<path d="M212.777 206.956C204.142 211.575 193.996 212.521 184.564 209.586C175.133 206.651 167.186 200.075 162.468 191.301C153.829 175.194 155.099 163.515 179.473 130.03C179.504 129.987 179.533 129.944 179.561 129.899C180.091 129.016 180.79 128.25 181.619 127.645C182.447 127.04 183.389 126.608 184.388 126.375C185.388 126.141 186.427 126.11 187.444 126.284C188.461 126.457 189.438 126.832 190.316 127.385C191.195 127.939 191.959 128.661 192.565 129.511C193.17 130.36 193.605 131.319 193.844 132.333C194.083 133.348 194.122 134.397 193.958 135.42C193.794 136.444 193.431 137.422 192.889 138.297L181.747 156.576C181.524 156.943 181.427 157.376 181.473 157.807C181.519 158.239 181.704 158.646 182.001 158.964C182.297 159.282 182.688 159.494 183.112 159.567C183.537 159.641 183.971 159.571 184.348 159.368L229.431 135.188C231.249 134.213 233.385 134.013 235.372 134.631C237.358 135.249 239.031 136.635 240.023 138.484C241.014 140.333 241.243 142.493 240.659 144.49C240.076 146.486 238.727 148.155 236.909 149.13L207.787 164.75C207.332 164.994 206.995 165.411 206.849 165.91C206.703 166.409 206.76 166.95 207.008 167.412C207.256 167.874 207.674 168.22 208.171 168.375C208.667 168.53 209.202 168.479 209.656 168.236L245.631 148.94C247.448 147.966 249.585 147.765 251.572 148.383C253.558 149.002 255.231 150.387 256.222 152.236C257.214 154.085 257.443 156.246 256.859 158.242C256.275 160.239 254.926 161.908 253.109 162.883L217.134 182.178C216.68 182.422 216.342 182.839 216.196 183.338C216.05 183.837 216.108 184.377 216.356 184.84C216.604 185.302 217.022 185.648 217.518 185.803C218.015 185.957 218.549 185.907 219.004 185.664L241.274 173.719C243.091 172.744 245.228 172.544 247.214 173.162C249.201 173.78 250.873 175.166 251.865 177.015C252.857 178.864 253.086 181.024 252.502 183.021C251.918 185.017 250.569 186.686 248.752 187.661L212.777 206.956Z" fill="white"/>
<path d="M213.013 207.397L213.013 207.397C204.259 212.08 193.974 213.037 184.416 210.063C174.858 207.089 166.807 200.426 162.027 191.538L162.027 191.537C157.67 183.414 155.781 176.338 158.105 167.061C160.416 157.84 166.88 146.481 179.069 129.736L179.069 129.735C179.092 129.704 179.113 129.673 179.133 129.64C179.133 129.64 179.133 129.639 179.133 129.639L179.561 129.899C180.091 129.016 180.79 128.25 181.619 127.645C182.447 127.04 183.389 126.608 184.388 126.375C185.388 126.141 186.427 126.11 187.444 126.284C188.461 126.457 189.438 126.832 190.316 127.385C191.195 127.939 191.959 128.661 192.565 129.511C193.17 130.36 193.605 131.319 193.844 132.333C194.083 133.348 194.122 134.397 193.958 135.42C193.794 136.444 193.431 137.422 192.889 138.297L213.013 207.397ZM213.013 207.397L248.988 188.102C250.925 187.063 252.361 185.285 252.982 183.161C253.603 181.037 253.359 178.742 252.306 176.778C251.253 174.815 249.475 173.342 247.363 172.685C245.25 172.027 242.974 172.24 241.037 173.278L218.767 185.223C218.432 185.403 218.037 185.441 217.667 185.325C217.297 185.21 216.983 184.951 216.796 184.603C216.61 184.256 216.568 183.851 216.676 183.479C216.785 183.107 217.035 182.798 217.37 182.619L253.345 163.323C255.282 162.285 256.718 160.507 257.339 158.383C257.96 156.259 257.716 153.963 256.663 152C255.61 150.037 253.833 148.563 251.72 147.906C249.607 147.248 247.331 147.461 245.395 148.5L209.42 167.795C209.085 167.975 208.689 168.013 208.319 167.898C207.949 167.782 207.635 167.523 207.449 167.175C207.262 166.828 207.22 166.423 207.329 166.051C207.438 165.679 207.688 165.37 208.023 165.191L237.146 149.571C239.082 148.532 240.518 146.754 241.139 144.63C241.76 142.506 241.516 140.211 240.463 138.247C239.41 136.284 237.633 134.811 235.52 134.153C233.407 133.496 231.132 133.709 229.195 134.747L184.112 158.928C183.834 159.077 183.512 159.129 183.197 159.075C182.881 159.02 182.589 158.862 182.367 158.623C182.144 158.384 182.005 158.079 181.97 157.755C181.936 157.431 182.008 157.108 182.174 156.836L193.314 138.561L213.013 207.397Z" stroke="#212121"/>
</g>
<defs>
<filter id="filter0_d_1420_4040" x="52.8542" y="16.4123" width="213.498" height="189.908" filterUnits="userSpaceOnUse" color-interpolation-filters="sRGB">
<feFlood flood-opacity="0" result="BackgroundImageFix"/>
<feColorMatrix in="SourceAlpha" type="matrix" values="0 0 0 0 0 0 0 0 0 0 0 0 0 0 0 0 0 0 127 0" result="hardAlpha"/>
<feOffset dy="4"/>
<feGaussianBlur stdDeviation="2"/>
<feComposite in2="hardAlpha" operator="out"/>
<feColorMatrix type="matrix" values="0 0 0 0 0 0 0 0 0 0 0 0 0 0 0 0 0 0 0.25 0"/>
<feBlend mode="normal" in2="BackgroundImageFix" result="effect1_dropShadow_1420_4040"/>
<feBlend mode="normal" in="SourceGraphic" in2="effect1_dropShadow_1420_4040" result="shape"/>
</filter>
<filter id="filter1_d_1420_4040" x="25.8604" y="45.8064" width="281.054" height="112.78" filterUnits="userSpaceOnUse" color-interpolation-filters="sRGB">
<feFlood flood-opacity="0" result="BackgroundImageFix"/>
<feColorMatrix in="SourceAlpha" type="matrix" values="0 0 0 0 0 0 0 0 0 0 0 0 0 0 0 0 0 0 127 0" result="hardAlpha"/>
<feOffset dy="4"/>
<feGaussianBlur stdDeviation="2"/>
<feComposite in2="hardAlpha" operator="out"/>
<feColorMatrix type="matrix" values="0 0 0 0 0 0 0 0 0 0 0 0 0 0 0 0 0 0 0.25 0"/>
<feBlend mode="normal" in2="BackgroundImageFix" result="effect1_dropShadow_1420_4040"/>
<feBlend mode="normal" in="SourceGraphic" in2="effect1_dropShadow_1420_4040" result="shape"/>
</filter>
<filter id="filter2_d_1420_4040" x="152.604" y="125.173" width="109.573" height="95.0886" filterUnits="userSpaceOnUse" color-interpolation-filters="sRGB">
<feFlood flood-opacity="0" result="BackgroundImageFix"/>
<feColorMatrix in="SourceAlpha" type="matrix" values="0 0 0 0 0 0 0 0 0 0 0 0 0 0 0 0 0 0 127 0" result="hardAlpha"/>
<feOffset dy="4"/>
<feGaussianBlur stdDeviation="2"/>
<feComposite in2="hardAlpha" operator="out"/>
<feColorMatrix type="matrix" values="0 0 0 0 0 0 0 0 0 0 0 0 0 0 0 0 0 0 0.25 0"/>
<feBlend mode="normal" in2="BackgroundImageFix" result="effect1_dropShadow_1420_4040"/>
<feBlend mode="normal" in="SourceGraphic" in2="effect1_dropShadow_1420_4040" result="shape"/>
</filter>
</defs>
</svg>
