<svg width="621" height="477" viewBox="0 0 621 477" fill="none" xmlns="http://www.w3.org/2000/svg">
<rect width="620" height="477" rx="86" fill="#FDD835"/>
<path fill-rule="evenodd" clip-rule="evenodd" d="M260.857 202.609C247.254 199.841 233.743 207.994 230.113 221.393L201.808 325.887L295.248 351.197L310.601 294.517C351.145 299.873 385.685 301.844 414.221 300.43C442.757 299.017 466.461 294.653 485.334 287.34C504.207 280.026 518.874 270.05 529.336 257.41C540.017 244.83 547.664 230.021 552.279 212.985C558.373 190.488 558.68 169.002 553.199 148.527C547.937 128.112 537.316 109.292 521.336 92.0693C505.634 74.6869 484.761 59.0691 458.718 45.2159C432.953 31.2034 402.694 19.4903 367.941 10.0766C353.264 6.10085 338.839 2.74197 324.667 -2.32294e-08L121.032 0C111.844 5.49696 107.322 16.978 110.541 28.0748L122.893 70.6622C126.741 83.9268 140.291 91.8027 153.969 89.8889C160.921 88.9161 168.246 88.1143 175.944 87.4832C193.22 86.0671 211.381 85.7115 230.428 86.4164C249.475 87.1213 269.05 88.9071 289.154 91.7737C309.257 94.6404 328.817 98.6492 347.833 103.8C365.537 108.596 381.088 113.98 394.485 119.954C408.1 125.986 419.234 132.519 427.886 139.551C436.598 146.366 442.719 153.65 446.249 161.405C449.779 169.16 450.449 177.079 448.26 185.16C445.953 193.678 440.653 200.683 432.362 206.174C424.131 211.446 411.705 214.88 395.085 216.473C378.743 217.908 357.581 217.216 331.599 214.398C311.479 212.042 287.898 208.112 260.857 202.609ZM300.993 477H169.456C166.635 474.128 164.123 471.111 161.919 467.95C156.682 460.436 153.241 452.353 151.596 443.702C150.228 434.892 150.728 426.118 153.095 417.381C155.461 408.645 159.428 400.928 164.996 394.23C170.842 387.374 177.922 382.024 186.236 378.18C194.609 374.118 204.048 371.751 214.552 371.08C225.057 370.409 236.32 371.702 248.341 374.958C260.363 378.214 270.738 382.783 279.468 388.664C288.198 394.546 295.042 401.323 300.002 408.996C305.239 416.511 308.542 424.673 309.909 433.483C311.554 442.135 311.193 450.829 308.827 459.565C307.12 465.866 304.509 471.677 300.993 477Z" fill="#F57C00"/>
<rect x="51.7717" y="166.848" width="216.293" height="179.152" fill="#FFB74D" stroke="#212121" stroke-width="2"/>
<rect x="351.087" y="166.848" width="216.293" height="179.152" fill="#FFB74D" stroke="#212121" stroke-width="2"/>
<rect x="36.4783" y="155.924" width="214.109" height="179.152" fill="#FFB74D" stroke="#212121" stroke-width="2"/>
<rect x="368.565" y="155.924" width="214.109" height="179.152" fill="#FFB74D" stroke="#212121" stroke-width="2"/>
<rect x="19" y="145" width="214.109" height="179.152" fill="#FFB74D" stroke="#212121" stroke-width="2"/>
<rect x="386.043" y="145" width="214.109" height="179.152" fill="#C62828" stroke="#212121" stroke-width="2"/>
<path d="M516.885 339.132C504.589 322.96 481.298 320.123 465.488 332.731C469.915 312.835 457.506 292.936 437.692 288.156C455.971 279.507 463.673 257.344 454.561 239.186C472.446 247.924 494.444 240.562 503.07 222.634C507.369 242.604 527.196 255.283 547.073 250.903C534.393 266.825 537.054 290.208 553.095 302.857C533.2 302.714 516.909 319.228 516.885 339.132Z" fill="#FFCBCB" stroke="#212121" stroke-width="2"/>
<path d="M547.738 359.338L547.738 359.337L550.887 336.466C551.257 333.777 550.544 331.051 548.904 328.888C547.264 326.725 544.833 325.301 542.144 324.931C539.455 324.561 536.729 325.274 534.565 326.914C532.402 328.554 530.979 330.985 530.609 333.674C530.562 334.018 530.38 334.329 530.103 334.539C529.826 334.749 529.478 334.84 529.134 334.792C528.79 334.745 528.479 334.563 528.27 334.287C528.06 334.01 527.969 333.661 528.016 333.318L528.961 326.456C529.331 323.767 528.618 321.041 526.978 318.878C525.338 316.715 522.906 315.292 520.217 314.922C517.528 314.551 514.802 315.265 512.639 316.904C510.476 318.544 509.053 320.976 508.683 323.665L508.368 325.952C508.321 326.296 508.139 326.607 507.862 326.816C507.585 327.026 507.237 327.117 506.893 327.07C506.549 327.022 506.238 326.84 506.029 326.564C505.819 326.287 505.728 325.939 505.775 325.595L511.127 286.715C511.498 284.026 510.784 281.3 509.145 279.137C507.505 276.973 505.073 275.55 502.384 275.18C499.695 274.81 496.969 275.523 494.806 277.163C492.643 278.802 491.22 281.234 490.85 283.923L481.304 353.26C481.265 353.545 481.133 353.809 480.928 354.012C480.723 354.214 480.457 354.344 480.171 354.38C479.885 354.415 479.596 354.356 479.347 354.211C479.098 354.065 478.905 353.842 478.796 353.575L469.25 330.139C469.25 330.138 469.25 330.137 469.249 330.136C468.748 328.884 468.005 327.743 467.062 326.779C466.118 325.815 464.992 325.046 463.75 324.518C462.508 323.99 461.174 323.713 459.824 323.703C458.474 323.693 457.136 323.95 455.886 324.459C454.636 324.968 453.499 325.719 452.54 326.67C451.582 327.62 450.821 328.751 450.301 329.996C449.781 331.242 449.513 332.578 449.512 333.928C449.511 335.276 449.776 336.612 450.293 337.858C450.305 337.889 450.317 337.921 450.327 337.953L450.327 337.954C457.709 361.336 463.978 375.53 471.132 384.239C478.361 393.04 486.445 396.186 497.175 397.663L497.176 397.663C508.961 399.272 520.903 396.141 530.382 388.956C539.861 381.771 546.103 371.119 547.738 359.338Z" fill="white" stroke="#212121" stroke-width="2"/>
</svg>
