<svg width="325" height="250" viewBox="0 0 325 250" fill="none" xmlns="http://www.w3.org/2000/svg">
<rect width="325" height="250" rx="86" fill="#FDD835"/>
<mask id="mask0_1420_3998" style="mask-type:alpha" maskUnits="userSpaceOnUse" x="0" y="0" width="325" height="250">
<rect width="325" height="250" rx="86" fill="#FBC02D"/>
</mask>
<g mask="url(#mask0_1420_3998)">
<path d="M117.519 127.425C121.148 114.026 134.65 105.927 148.303 108.438C157.733 110.172 166.23 111.482 173.794 112.368C187.412 113.845 198.503 114.207 207.068 113.456C215.778 112.62 222.291 110.821 226.605 108.058C230.95 105.18 233.728 101.509 234.937 97.0441C236.084 92.8085 235.733 88.6585 233.883 84.5939C232.033 80.5294 228.825 76.7115 224.259 73.1401C219.724 69.4542 213.889 66.0304 206.753 62.8687C199.731 59.738 191.581 56.916 182.302 54.4025C172.336 51.7029 162.085 49.6019 151.548 48.0994C141.012 46.597 130.752 45.661 120.769 45.2916C110.787 44.9222 101.268 45.1085 92.214 45.8507C92.09 45.8609 91.9662 45.8712 91.8426 45.8815C78.3609 47.0084 65.054 39.2566 61.2853 26.2634L61.1382 25.7562C57.258 12.3787 65.1459 -1.47178 78.9588 -3.26492C88.8028 -4.65329 99.6994 -5.38794 111.648 -5.46885C123.712 -5.51873 136.594 -4.73248 150.295 -3.1101C163.996 -1.48772 178.178 1.3094 192.841 5.28126C211.056 10.215 226.915 16.354 240.418 23.698C254.068 30.9586 265.007 39.1441 273.237 48.2543C281.612 57.2811 287.179 67.1445 289.937 77.8444C292.809 88.5753 292.648 99.8362 289.455 111.627C287.036 120.556 283.028 128.318 277.43 134.911C271.947 141.535 264.259 146.764 254.368 150.597C244.477 154.43 232.053 156.717 217.097 157.458C202.141 158.199 184.038 157.166 162.789 154.359L154.742 184.065L105.77 170.8L117.519 127.425ZM80.2383 218.753C81.4786 214.174 83.5579 210.13 86.4761 206.62C89.5398 203.026 93.2504 200.222 97.6078 198.208C101.996 196.079 106.943 194.838 112.449 194.486C117.954 194.135 123.857 194.812 130.158 196.519C136.458 198.225 141.896 200.62 146.472 203.702C151.047 206.785 154.634 210.337 157.234 214.359C159.979 218.297 161.71 222.575 162.426 227.193C163.288 231.727 163.099 236.283 161.859 240.862C160.618 245.441 158.466 249.528 155.403 253.121C152.484 256.631 148.847 259.394 144.489 261.408C140.246 263.454 135.372 264.652 129.867 265.004C124.33 265.47 118.411 264.85 112.111 263.143C105.81 261.437 100.388 258.985 95.8437 255.788C91.2684 252.706 87.6083 249.195 84.8633 245.257C82.1183 241.319 80.3148 237.082 79.4526 232.548C78.7361 227.931 78.9979 223.332 80.2383 218.753Z" fill="#F57C00"/>
</g>
<rect x="51.6882" y="51.7959" width="106.518" height="88.2272" transform="rotate(16.0215 51.6882 51.7959)" fill="#FFB74D" stroke="#212121"/>
<rect x="193.367" y="92.4791" width="106.518" height="88.2272" transform="rotate(16.0215 193.367 92.4791)" fill="#FFB74D" stroke="#212121"/>
<rect x="45.9341" y="44.5464" width="105.442" height="88.2272" transform="rotate(16.0215 45.9341 44.5464)" fill="#FFB74D" stroke="#212121"/>
<rect x="203.125" y="89.684" width="105.442" height="88.2272" transform="rotate(16.0215 203.125 89.684)" fill="#FFB74D" stroke="#212121"/>
<rect x="39.1456" y="37" width="105.442" height="88.2272" transform="rotate(16.0215 39.1456 37)" fill="#FFB74D" stroke="#212121"/>
<rect x="212.883" y="86.889" width="105.442" height="88.2272" transform="rotate(16.0215 212.883 86.889)" fill="#C62828" stroke="#212121"/>
<g filter="url(#filter0_d_1420_3998)">
<path d="M246.885 134.913V134.913C244.398 147.564 253.861 159.422 266.749 159.803L267.175 159.815V159.815C255.7 165.544 252.482 180.526 260.355 190.651V190.651L259.871 190.433C248.206 185.162 234.618 191.769 231.56 204.2V204.2V204.2C228.205 191.605 214.393 184.985 202.474 190.259V190.259V190.259C210.248 180.088 206.887 165.359 195.471 159.566L194.998 159.326V159.326C207.822 159.121 217.485 147.228 214.763 134.695V134.695L215.04 135.019C223.409 144.826 238.581 144.776 246.885 134.913V134.913Z" fill="#E57373"/>
<path d="M258.917 189.493C247.767 185.221 235.286 191.172 231.544 202.45C227.588 191.15 215.134 185.181 203.847 189.175C210.294 179.194 207.116 165.738 196.802 159.722C208.444 158.549 217.062 147.928 215.554 136.329C223.886 144.969 237.749 145.007 246.133 136.481C244.738 148.357 253.452 159.139 265.405 160.223C255.419 166.312 252.538 179.684 258.917 189.493Z" stroke="#212121"/>
</g>
<g filter="url(#filter1_d_1420_3998)">
<path d="M283.623 186.888C286.951 194.177 287.252 202.489 284.46 210C281.668 217.51 276.011 223.607 268.729 226.952C255.363 233.073 246.014 231.379 220.148 209.649C220.115 209.622 220.081 209.595 220.046 209.571C219.359 209.089 218.773 208.477 218.324 207.768C217.874 207.059 217.569 206.269 217.427 205.442C217.284 204.615 217.306 203.768 217.492 202.95C217.678 202.132 218.024 201.358 218.51 200.674C218.996 199.99 219.612 199.409 220.324 198.964C221.035 198.519 221.828 198.22 222.655 198.082C223.483 197.945 224.33 197.973 225.147 198.164C225.964 198.355 226.735 198.706 227.416 199.197L241.633 209.298C241.919 209.501 242.263 209.604 242.613 209.591C242.963 209.578 243.299 209.45 243.569 209.227C243.838 209.003 244.027 208.697 244.105 208.356C244.183 208.015 244.147 207.657 244.001 207.339L223.92 163.494C223.218 161.959 223.153 160.209 223.741 158.627C224.329 157.045 225.522 155.762 227.056 155.059C228.59 154.357 230.341 154.292 231.922 154.88C233.504 155.468 234.788 156.661 235.49 158.195L246.75 182.781C246.926 183.164 247.247 183.462 247.642 183.609C248.038 183.756 248.475 183.74 248.859 183.565C249.242 183.389 249.54 183.068 249.687 182.673C249.834 182.277 249.818 181.84 249.643 181.456L248.98 180.01C248.278 178.476 248.213 176.725 248.801 175.143C249.389 173.562 250.582 172.278 252.116 171.576C253.65 170.873 255.401 170.808 256.982 171.396C258.564 171.985 259.848 173.177 260.55 174.711L262.537 179.05C262.713 179.433 263.034 179.731 263.429 179.878C263.825 180.025 264.262 180.009 264.646 179.834C265.029 179.658 265.327 179.337 265.474 178.942C265.621 178.546 265.605 178.109 265.43 177.725C264.727 176.191 264.663 174.44 265.251 172.858C265.839 171.277 267.031 169.993 268.565 169.291C270.099 168.588 271.85 168.524 273.432 169.112C275.014 169.7 276.297 170.892 277 172.426L283.623 186.888Z" fill="white"/>
<path d="M284.078 186.68L284.078 186.681C287.461 194.09 287.767 202.539 284.929 210.174C282.091 217.809 276.34 224.006 268.938 227.406L268.938 227.406C262.18 230.501 256.368 231.646 248.97 229.22C241.629 226.813 232.761 220.899 219.826 210.032L219.826 210.032C219.804 210.013 219.781 209.996 219.758 209.979C219.757 209.979 219.757 209.979 219.757 209.978L220.046 209.571C219.359 209.089 218.773 208.477 218.324 207.768C217.874 207.059 217.569 206.269 217.427 205.442C217.284 204.615 217.306 203.768 217.492 202.95C217.678 202.132 218.024 201.358 218.51 200.674C218.996 199.99 219.612 199.409 220.324 198.964C221.035 198.519 221.828 198.22 222.655 198.082C223.483 197.945 224.33 197.973 225.147 198.164C225.964 198.355 226.735 198.706 227.416 199.197L284.078 186.68ZM284.078 186.68L277.454 172.218C276.696 170.563 275.312 169.277 273.606 168.643C271.9 168.009 270.012 168.078 268.357 168.836C266.702 169.594 265.416 170.978 264.782 172.684C264.148 174.39 264.217 176.278 264.975 177.933C265.096 178.196 265.107 178.496 265.006 178.767C264.905 179.039 264.701 179.259 264.438 179.379C264.175 179.499 263.875 179.511 263.603 179.41C263.332 179.309 263.112 179.105 262.992 178.842L261.005 174.503C260.247 172.848 258.863 171.562 257.157 170.928C255.451 170.294 253.562 170.363 251.908 171.121C250.253 171.879 248.967 173.263 248.333 174.969C247.698 176.675 247.768 178.563 248.526 180.218L249.188 181.664C249.309 181.927 249.32 182.227 249.219 182.499C249.118 182.77 248.914 182.99 248.651 183.11C248.388 183.231 248.088 183.242 247.816 183.141C247.545 183.04 247.325 182.836 247.205 182.573L235.945 157.987C235.187 156.332 233.803 155.046 232.097 154.412C230.391 153.777 228.502 153.847 226.848 154.605C225.193 155.363 223.907 156.747 223.273 158.453C222.638 160.159 222.708 162.047 223.466 163.702L243.546 207.547C243.646 207.765 243.671 208.01 243.618 208.244C243.564 208.478 243.435 208.688 243.25 208.841C243.065 208.994 242.835 209.082 242.595 209.091C242.355 209.1 242.119 209.029 241.923 208.89L227.708 198.791C227.708 198.791 227.707 198.791 227.707 198.79L284.078 186.68Z" stroke="#212121"/>
</g>
<defs>
<filter id="filter0_d_1420_3998" x="190.998" y="134.695" width="80.1764" height="77.5046" filterUnits="userSpaceOnUse" color-interpolation-filters="sRGB">
<feFlood flood-opacity="0" result="BackgroundImageFix"/>
<feColorMatrix in="SourceAlpha" type="matrix" values="0 0 0 0 0 0 0 0 0 0 0 0 0 0 0 0 0 0 127 0" result="hardAlpha"/>
<feOffset dy="4"/>
<feGaussianBlur stdDeviation="2"/>
<feComposite in2="hardAlpha" operator="out"/>
<feColorMatrix type="matrix" values="0 0 0 0 0 0 0 0 0 0 0 0 0 0 0 0 0 0 0.25 0"/>
<feBlend mode="normal" in2="BackgroundImageFix" result="effect1_dropShadow_1420_3998"/>
<feBlend mode="normal" in="SourceGraphic" in2="effect1_dropShadow_1420_3998" result="shape"/>
</filter>
<filter id="filter1_d_1420_3998" x="205.334" y="146.482" width="93.0228" height="99.5467" filterUnits="userSpaceOnUse" color-interpolation-filters="sRGB">
<feFlood flood-opacity="0" result="BackgroundImageFix"/>
<feColorMatrix in="SourceAlpha" type="matrix" values="0 0 0 0 0 0 0 0 0 0 0 0 0 0 0 0 0 0 127 0" result="hardAlpha"/>
<feOffset dy="4"/>
<feGaussianBlur stdDeviation="5.5"/>
<feComposite in2="hardAlpha" operator="out"/>
<feColorMatrix type="matrix" values="0 0 0 0 0 0 0 0 0 0 0 0 0 0 0 0 0 0 0.25 0"/>
<feBlend mode="normal" in2="BackgroundImageFix" result="effect1_dropShadow_1420_3998"/>
<feBlend mode="normal" in="SourceGraphic" in2="effect1_dropShadow_1420_3998" result="shape"/>
</filter>
</defs>
</svg>
